<?xml version="1.0" encoding="utf-8"?>
<!-- Generator: Adobe Illustrator 26.2.1, SVG Export Plug-In . SVG Version: 6.00 Build 0)  -->
<svg version="1.1" id="Layer_1" xmlns="http://www.w3.org/2000/svg" xmlns:xlink="http://www.w3.org/1999/xlink" x="0px" y="0px"
	 viewBox="0 0 249 31" style="enable-background:new 0 0 249 31;" xml:space="preserve">
<style type="text/css">
	.st0{enable-background:new    ;}
	.st1{fill:none;stroke:#000000;}
	.st2{fill:#2755A6;}
</style>
<text transform="matrix(1 0 0 1 297.6377 420.945)" style="font-family:'MyriadPro-Regular'; font-size:12px;">#2755A6</text>
<text transform="matrix(1 0 0 1 297.6377 420.945)" style="font-family:'MyriadPro-Regular'; font-size:12px;">#2755A6</text>
<text transform="matrix(1 0 0 1 297.6377 420.945)" style="font-family:'MyriadPro-Regular'; font-size:12px;">#2755A6</text>
<g class="st0">
	<path d="M125.8,24h-3.3v-6.8h-6.2V24H113V8.3h3.3v6.2h6.2V8.3h3.3V24z"/>
	<path d="M134.5,11.8c1.7,0,3,0.5,3.9,1.4c1,0.9,1.5,2.3,1.5,4v1.6h-7.7c0,0.9,0.3,1.7,0.8,2.2c0.5,0.5,1.2,0.8,2.2,0.8
		c0.8,0,1.5-0.1,2.1-0.2c0.6-0.2,1.3-0.4,2-0.7v2.5c-0.6,0.3-1.2,0.5-1.9,0.6c-0.6,0.1-1.4,0.2-2.4,0.2c-1.2,0-2.3-0.2-3.2-0.7
		s-1.6-1.1-2.2-2c-0.5-0.9-0.8-2-0.8-3.4s0.2-2.6,0.7-3.5s1.1-1.6,2-2.1C132.4,12,133.4,11.8,134.5,11.8z M134.5,14.1
		c-0.6,0-1.2,0.2-1.6,0.6c-0.4,0.4-0.7,1-0.7,1.9h4.6c0-0.7-0.2-1.3-0.6-1.8C135.8,14.3,135.3,14.1,134.5,14.1z"/>
	<path d="M149.3,11.8c0.2,0,0.4,0,0.6,0c0.2,0,0.4,0,0.5,0.1l-0.2,3.1c-0.1,0-0.3-0.1-0.5-0.1c-0.2,0-0.4,0-0.5,0
		c-0.6,0-1.1,0.1-1.6,0.3s-0.9,0.5-1.2,1c-0.3,0.4-0.5,1-0.5,1.8V24h-3.3V12h2.5l0.5,2h0.2c0.4-0.6,0.8-1.1,1.5-1.6
		C147.7,12,148.5,11.8,149.3,11.8z"/>
	<path d="M157,11.8c1.7,0,3,0.5,3.9,1.4c1,0.9,1.5,2.3,1.5,4v1.6h-7.7c0,0.9,0.3,1.7,0.8,2.2c0.5,0.5,1.2,0.8,2.2,0.8
		c0.8,0,1.5-0.1,2.1-0.2c0.6-0.2,1.3-0.4,2-0.7v2.5c-0.6,0.3-1.2,0.5-1.9,0.6c-0.6,0.1-1.4,0.2-2.4,0.2c-1.2,0-2.3-0.2-3.2-0.7
		s-1.7-1.1-2.2-2c-0.5-0.9-0.8-2-0.8-3.4s0.2-2.6,0.7-3.5c0.5-0.9,1.1-1.6,2-2.1C154.9,12,155.9,11.8,157,11.8z M157.1,14.1
		c-0.6,0-1.2,0.2-1.6,0.6c-0.4,0.4-0.7,1-0.7,1.9h4.6c0-0.7-0.2-1.3-0.6-1.8C158.4,14.3,157.8,14.1,157.1,14.1z"/>
	<path d="M175.9,21.6c0.4,0,0.7,0,1.1-0.1s0.7-0.2,1-0.3v2.4c-0.4,0.2-0.8,0.3-1.3,0.4c-0.5,0.1-1.1,0.2-1.7,0.2
		c-0.7,0-1.4-0.1-1.9-0.4s-1-0.6-1.3-1.2s-0.5-1.4-0.5-2.4v-5.8h-1.6v-1.4l1.8-1.1l0.9-2.5h2.1V12h3.4v2.5h-3.4v5.8
		c0,0.5,0.1,0.8,0.4,1C175.1,21.5,175.5,21.6,175.9,21.6z"/>
	<path d="M191.3,18c0,2-0.5,3.5-1.6,4.6c-1,1.1-2.5,1.6-4.3,1.6c-1.1,0-2.1-0.2-3-0.7c-0.9-0.5-1.6-1.2-2.1-2.1
		c-0.5-0.9-0.7-2.1-0.7-3.4c0-2,0.5-3.5,1.6-4.6s2.5-1.6,4.3-1.6c1.1,0,2.1,0.2,3,0.7c0.9,0.5,1.5,1.2,2,2.1
		C191,15.5,191.3,16.7,191.3,18z M183,18c0,1.2,0.2,2.1,0.6,2.7s1,0.9,1.9,0.9c0.9,0,1.5-0.3,1.9-0.9c0.4-0.6,0.6-1.5,0.6-2.7
		c0-1.2-0.2-2.1-0.6-2.7c-0.4-0.6-1-0.9-1.9-0.9c-0.9,0-1.5,0.3-1.9,0.9S183,16.8,183,18z"/>
	<path d="M212.8,24h-3.3v-6.8h-6.2V24H200V8.3h3.3v6.2h6.2V8.3h3.3V24z"/>
	<path d="M221.5,11.8c1.7,0,3,0.5,3.9,1.4c1,0.9,1.5,2.3,1.5,4v1.6h-7.7c0,0.9,0.3,1.7,0.8,2.2c0.5,0.5,1.2,0.8,2.2,0.8
		c0.8,0,1.5-0.1,2.1-0.2s1.3-0.4,2-0.7v2.5c-0.6,0.3-1.2,0.5-1.9,0.6c-0.6,0.1-1.4,0.2-2.4,0.2c-1.2,0-2.3-0.2-3.2-0.7
		s-1.7-1.1-2.2-2c-0.5-0.9-0.8-2-0.8-3.4s0.2-2.6,0.7-3.5s1.1-1.6,2-2.1C219.4,12,220.4,11.8,221.5,11.8z M221.5,14.1
		c-0.6,0-1.2,0.2-1.6,0.6c-0.4,0.4-0.7,1-0.7,1.9h4.6c0-0.7-0.2-1.3-0.6-1.8C222.8,14.3,222.3,14.1,221.5,14.1z"/>
	<path d="M232.8,24h-3.3V7.3h3.3V24z"/>
	<path d="M242.9,11.8c1.3,0,2.4,0.5,3.3,1.6c0.8,1,1.3,2.6,1.3,4.6c0,2.1-0.4,3.6-1.3,4.7c-0.9,1.1-2,1.6-3.3,1.6
		c-0.9,0-1.6-0.2-2.1-0.5c-0.5-0.3-0.9-0.7-1.3-1.1h-0.2c0.1,0.6,0.2,1.2,0.2,1.8v4.8h-3.3V12h2.7l0.5,1.6h0.2
		c0.3-0.5,0.8-0.9,1.3-1.3C241.4,11.9,242.1,11.8,242.9,11.8z M241.9,14.4c-0.9,0-1.5,0.3-1.8,0.8c-0.4,0.5-0.5,1.3-0.5,2.4V18
		c0,1.2,0.2,2,0.5,2.7s1,0.9,1.9,0.9c0.7,0,1.3-0.3,1.7-0.9c0.4-0.6,0.5-1.5,0.5-2.7C244.1,15.6,243.4,14.4,241.9,14.4z"/>
</g>
<line class="st1" x1="97.5" y1="1.5" x2="97.5" y2="28.6"/>
<g id="Layer_2_1_">
	<g id="Layer_1-2">
		<path class="st2" d="M76.7,20.9c-0.2,0.6-0.7,1-1.2,1.4c-0.5,0.3-1,0.4-1.6,0.4l0,0c-0.6,0-1.1-0.2-1.6-0.5
			c-0.5-0.4-0.9-0.8-1.2-1.4c-0.3-0.7-0.4-1.5-0.4-2.3c0-0.8,0.1-1.5,0.4-2.2c0.2-0.6,0.6-1.1,1.1-1.5c0.5-0.4,1.1-0.5,1.7-0.5h0
			c0.6,0,1.1,0.2,1.6,0.5c0.5,0.4,0.9,0.9,1.2,1.5c0.3,0.7,0.5,1.5,0.4,2.3C77.2,19.3,77,20.1,76.7,20.9 M80.1,7.4
			c-0.3-0.3-0.7-0.5-1.2-0.5c-0.4,0-0.9,0.2-1.2,0.5c-0.3,0.3-0.4,0.9-0.4,1.5v4.9c-0.6-0.6-1.2-1.1-2-1.5c-0.5-0.2-0.9-0.4-1.5-0.4
			c-0.3,0-0.7-0.1-1-0.1c-1.7,0-3,0.6-4.1,1.7s-1.5,2.8-1.5,4.8c0,0.9,0.1,1.8,0.4,2.7c0.2,0.8,0.6,1.5,1.1,2.2
			c0.5,0.6,1.1,1.1,1.8,1.4c0.7,0.3,1.5,0.5,2.2,0.5c0.4,0,0.7,0,1-0.1c0.2,0,0.4-0.1,0.6-0.1c0.5-0.2,1-0.4,1.4-0.7
			c0.5-0.4,0.9-0.8,1.3-1.2v0.3c0,0.6,0.1,1.1,0.4,1.4c0.6,0.6,1.6,0.7,2.3,0c0,0,0,0,0,0c0.3-0.3,0.4-0.8,0.4-1.4V8.9
			C80.5,8.2,80.4,7.8,80.1,7.4"/>
		<path class="st2" d="M58.4,15c0.5-0.6,1.3-0.9,2.1-0.8h0c0.8,0,1.6,0.3,2.1,0.8c0.5,0.6,0.9,1.4,0.9,2.5h-6.1
			C57.5,16.4,57.8,15.6,58.4,15 M66.2,21c-0.2-0.2-0.5-0.3-0.8-0.3c-0.3,0-0.5,0.1-0.7,0.2c-0.4,0.4-0.8,0.7-1,0.9
			c-0.3,0.2-0.6,0.4-0.9,0.6c-0.3,0.2-0.6,0.3-1,0.4c-0.4,0.1-0.7,0.1-1.1,0.1c-0.1,0-0.2,0-0.3,0c-0.5,0-1-0.2-1.4-0.4
			c-0.5-0.3-0.9-0.7-1.2-1.3c-0.3-0.6-0.5-1.3-0.5-2H64c0.9,0,1.6-0.1,2-0.4s0.7-0.8,0.7-1.6c0-2-1.1-3.8-2.8-4.7
			c-0.9-0.5-2.1-0.8-3.4-0.8h-0.1c-0.9,0-1.8,0.2-2.7,0.5c-0.8,0.3-1.5,0.8-2.1,1.4c-0.6,0.6-1,1.3-1.3,2.1
			c-0.3,0.9-0.5,1.8-0.4,2.7c0,2.1,0.6,3.7,1.8,4.9c1.1,1.1,2.7,1.7,4.7,1.8c0.1,0,0.2,0,0.4,0c0.9,0,1.7-0.1,2.5-0.4
			c0.7-0.2,1.3-0.5,1.8-0.9c0.4-0.3,0.8-0.7,1.1-1.2c0.2-0.3,0.3-0.7,0.4-1C66.6,21.5,66.5,21.2,66.2,21"/>
		<path class="st2" d="M44.9,15c0.5-0.6,1.3-0.9,2.1-0.8h0c0.8,0,1.6,0.3,2.1,0.8c0.5,0.6,0.9,1.4,0.9,2.5h-6.1
			C44,16.4,44.3,15.6,44.9,15 M51.9,20.8c-0.3,0-0.5,0.1-0.7,0.2c-0.4,0.4-0.8,0.7-1,0.9c-0.3,0.2-0.6,0.4-0.9,0.6
			c-0.3,0.2-0.6,0.3-1,0.4c-0.4,0.1-0.7,0.1-1.1,0.1c-0.1,0-0.2,0-0.3,0c-0.5,0-1-0.2-1.4-0.4c-0.5-0.3-0.9-0.7-1.2-1.3
			c-0.3-0.6-0.5-1.3-0.5-2h6.6c0.9,0,1.6-0.1,2-0.4s0.7-0.8,0.7-1.6c-0.1-2-1.1-3.8-2.8-4.7c-0.9-0.5-2.1-0.8-3.4-0.8h-0.1
			c-0.9,0-1.8,0.2-2.7,0.5c-0.8,0.3-1.5,0.8-2.1,1.4c-0.6,0.6-1,1.3-1.3,2.1c-0.3,0.9-0.4,1.8-0.4,2.7c0,2.1,0.6,3.7,1.8,4.9
			c1.1,1.1,2.7,1.7,4.7,1.8c0.1,0,0.2,0,0.4,0c0.9,0,1.7-0.1,2.5-0.4c0.7-0.2,1.3-0.5,1.8-0.9c0.4-0.3,0.8-0.7,1.1-1.2
			c0.2-0.3,0.3-0.7,0.4-1c0-0.3-0.1-0.6-0.3-0.8C52.5,20.8,52.2,20.7,51.9,20.8"/>
		<path class="st2" d="M7,23.1v-7.9c0.2,0,0.4,0,0.7,0c1.1,0,2.1-0.3,3-0.8v8.6c0,0.7-0.2,1.3-0.5,1.6c-0.4,0.4-0.8,0.6-1.3,0.5
			c-0.5,0-1-0.2-1.3-0.6C7.2,24.4,7,23.8,7,23.1"/>
		<path class="st2" d="M35.4,20.9c-0.2,0.6-0.7,1-1.2,1.4c-0.5,0.3-1,0.4-1.6,0.4h0c-0.6,0-1.1-0.2-1.6-0.5
			c-0.5-0.4-0.9-0.8-1.2-1.4c-0.3-0.7-0.4-1.5-0.4-2.3c0-0.8,0.1-1.5,0.4-2.2c0.2-0.6,0.6-1.1,1.1-1.5c0.5-0.4,1.1-0.5,1.6-0.5h0
			c0.6,0,1.1,0.2,1.6,0.5c0.5,0.4,0.9,0.9,1.2,1.4c0.3,0.7,0.4,1.5,0.4,2.3C35.9,19.3,35.7,20.1,35.4,20.9 M38.8,7.4
			c-0.3-0.3-0.7-0.5-1.2-0.5c-0.4,0-0.9,0.2-1.2,0.5C36.2,7.8,36,8.3,36,9v4.9c-0.6-0.6-1.2-1.1-2-1.5c-0.5-0.2-0.9-0.4-1.5-0.4
			c-0.3,0-0.7-0.1-1-0.1c-1.7,0-3,0.6-4.1,1.7S26,16.4,26,18.5c0,0.9,0.1,1.8,0.4,2.7c0.2,0.8,0.6,1.5,1.2,2.2
			c0.5,0.6,1.1,1.1,1.8,1.4c0.7,0.3,1.5,0.5,2.2,0.5c0.4,0,0.7,0,1-0.1c0.2,0,0.4-0.1,0.6-0.1c0.5-0.2,1-0.4,1.4-0.7
			c0.5-0.4,0.9-0.8,1.3-1.2v0.3c0,0.6,0.1,1.1,0.4,1.4c0.3,0.3,0.7,0.5,1.2,0.5c0.4,0,0.8-0.2,1.1-0.5c0.3-0.3,0.4-0.8,0.4-1.4V8.9
			C39.2,8.2,39,7.8,38.8,7.4"/>
		<path class="st2" d="M16.1,13.7v0.4c0.5-0.7,1.2-1.3,2-1.7c0.8-0.4,1.6-0.5,2.4-0.5c0.8,0,1.7,0.2,2.4,0.6
			c0.7,0.4,1.2,0.9,1.6,1.6c0.2,0.4,0.4,0.9,0.4,1.3c0.1,0.6,0.1,1.2,0.1,1.8v6.1c0,0.7-0.2,1.2-0.5,1.5c-0.3,0.3-0.7,0.5-1.2,0.5
			c-0.5,0-0.9-0.2-1.2-0.5c-0.3-0.3-0.5-0.8-0.5-1.5v-5.5c0-1.1-0.1-1.9-0.5-2.5c-0.3-0.6-0.9-0.9-1.8-0.9c-0.6,0-1.2,0.2-1.6,0.5
			c-0.5,0.4-0.9,0.9-1.1,1.5c-0.2,0.5-0.2,1.4-0.2,2.8v4.1c0,0.7-0.2,1.2-0.5,1.5c-0.3,0.3-0.8,0.5-1.2,0.5c-0.5,0-0.9-0.2-1.2-0.5
			c-0.3-0.3-0.5-0.8-0.5-1.5v-9.5c0-0.6,0.1-1.1,0.4-1.4c0.3-0.3,0.7-0.5,1.2-0.5c0.3,0,0.6,0.1,0.8,0.2c0.3,0.1,0.4,0.4,0.6,0.6
			C16,13,16.1,13.3,16.1,13.7"/>
		<path class="st2" d="M7,4.2c2.3-0.8,4.9-0.8,6.8,0.9c0.4,0.3,0.8,0.7,0.9,1.2C15,7,14.1,6.3,14,6.2c-0.6-0.4-1.3-0.7-2-1
			C8.2,4.1,4.6,6.2,2.3,9.4c-0.9,1.4-1.6,2.9-2,4.6c0,0.2-0.1,0.4-0.2,0.6s0-0.5,0-0.5c0.1-0.7,0.2-1.4,0.4-2C1.4,8.5,3.7,5.6,7,4.2
			"/>
		<path class="st2" d="M10,13c-1.4,0.7-3,0.1-3.7-1.2c-0.7-1.3-0.2-2.9,1.1-3.6c0,0,0.1,0,0.1,0c1.4-0.7,3-0.1,3.7,1.2
			C11.9,10.6,11.4,12.2,10,13C10.1,13,10,13,10,13"/>
	</g>
</g>
</svg>
